<svg xmlns="http://www.w3.org/2000/svg" xmlns:xlink="http://www.w3.org/1999/xlink" width="1920" zoomAndPan="magnify" viewBox="0 0 1440 809.999993" height="1080" preserveAspectRatio="xMidYMid meet" version="1.0"><defs><filter x="0%" y="0%" width="100%" height="100%" id="b8551693b0"><feColorMatrix values="0 0 0 0 1 0 0 0 0 1 0 0 0 0 1 0 0 0 1 0" color-interpolation-filters="sRGB"/></filter><g/><clipPath id="b8ae42b918"><path d="M 0 0 L 1440 0 L 1440 810 L 0 810 Z M 0 0 " clip-rule="nonzero"/></clipPath><linearGradient x1="-677.098305" gradientTransform="matrix(0.903979, 0, 0, 0.903816, 612.082775, 66.79865)" y1="373" x2="915.858659" gradientUnits="userSpaceOnUse" y2="373" id="1c34b5875a"><stop stop-opacity="1" stop-color="rgb(0%, 0%, 0%)" offset="0"/><stop stop-opacity="1" stop-color="rgb(0%, 0%, 0%)" offset="0.25"/><stop stop-opacity="1" stop-color="rgb(0%, 0%, 0%)" offset="0.375"/><stop stop-opacity="1" stop-color="rgb(0%, 0%, 0%)" offset="0.40625"/><stop stop-opacity="1" stop-color="rgb(0%, 0%, 0%)" offset="0.421875"/><stop stop-opacity="1" stop-color="rgb(0.527954%, 0.527954%, 0.527954%)" offset="0.425781"/><stop stop-opacity="1" stop-color="rgb(1.055908%, 1.055908%, 1.055908%)" offset="0.429687"/><stop stop-opacity="1" stop-color="rgb(1.948547%, 1.948547%, 1.948547%)" offset="0.433594"/><stop stop-opacity="1" stop-color="rgb(2.841187%, 2.841187%, 2.841187%)" offset="0.4375"/><stop stop-opacity="1" stop-color="rgb(3.7323%, 3.7323%, 3.7323%)" offset="0.441406"/><stop stop-opacity="1" stop-color="rgb(4.624939%, 4.624939%, 4.624939%)" offset="0.445312"/><stop stop-opacity="1" stop-color="rgb(5.516052%, 5.516052%, 5.516052%)" offset="0.449219"/><stop stop-opacity="1" stop-color="rgb(6.408691%, 6.408691%, 6.408691%)" offset="0.453125"/><stop stop-opacity="1" stop-color="rgb(7.299805%, 7.299805%, 7.299805%)" offset="0.457031"/><stop stop-opacity="1" stop-color="rgb(8.192444%, 8.192444%, 8.192444%)" offset="0.460938"/><stop stop-opacity="1" stop-color="rgb(9.085083%, 9.085083%, 9.085083%)" offset="0.464844"/><stop stop-opacity="1" stop-color="rgb(9.977722%, 9.977722%, 9.977722%)" offset="0.46875"/><stop stop-opacity="1" stop-color="rgb(10.868835%, 10.868835%, 10.868835%)" offset="0.472656"/><stop stop-opacity="1" stop-color="rgb(11.761475%, 11.761475%, 11.761475%)" offset="0.476562"/><stop stop-opacity="1" stop-color="rgb(12.652588%, 12.652588%, 12.652588%)" offset="0.480469"/><stop stop-opacity="1" stop-color="rgb(13.545227%, 13.545227%, 13.545227%)" offset="0.484375"/><stop stop-opacity="1" stop-color="rgb(14.43634%, 14.43634%, 14.43634%)" offset="0.488281"/><stop stop-opacity="1" stop-color="rgb(15.328979%, 15.328979%, 15.328979%)" offset="0.492188"/><stop stop-opacity="1" stop-color="rgb(16.221619%, 16.221619%, 16.221619%)" offset="0.496094"/><stop stop-opacity="1" stop-color="rgb(17.114258%, 17.114258%, 17.114258%)" offset="0.5"/><stop stop-opacity="1" stop-color="rgb(18.005371%, 18.005371%, 18.005371%)" offset="0.503906"/><stop stop-opacity="1" stop-color="rgb(18.89801%, 18.89801%, 18.89801%)" offset="0.507812"/><stop stop-opacity="1" stop-color="rgb(19.789124%, 19.789124%, 19.789124%)" offset="0.511719"/><stop stop-opacity="1" stop-color="rgb(20.681763%, 20.681763%, 20.681763%)" offset="0.515625"/><stop stop-opacity="1" stop-color="rgb(21.572876%, 21.572876%, 21.572876%)" offset="0.519531"/><stop stop-opacity="1" stop-color="rgb(22.465515%, 22.465515%, 22.465515%)" offset="0.523438"/><stop stop-opacity="1" stop-color="rgb(23.356628%, 23.356628%, 23.356628%)" offset="0.527344"/><stop stop-opacity="1" stop-color="rgb(24.249268%, 24.249268%, 24.249268%)" offset="0.53125"/><stop stop-opacity="1" stop-color="rgb(25.141907%, 25.141907%, 25.141907%)" offset="0.535156"/><stop stop-opacity="1" stop-color="rgb(26.034546%, 26.034546%, 26.034546%)" offset="0.539062"/><stop stop-opacity="1" stop-color="rgb(26.925659%, 26.925659%, 26.925659%)" offset="0.542969"/><stop stop-opacity="1" stop-color="rgb(27.818298%, 27.818298%, 27.818298%)" offset="0.546875"/><stop stop-opacity="1" stop-color="rgb(28.709412%, 28.709412%, 28.709412%)" offset="0.550781"/><stop stop-opacity="1" stop-color="rgb(29.602051%, 29.602051%, 29.602051%)" offset="0.554687"/><stop stop-opacity="1" stop-color="rgb(30.493164%, 30.493164%, 30.493164%)" offset="0.558594"/><stop stop-opacity="1" stop-color="rgb(31.385803%, 31.385803%, 31.385803%)" offset="0.5625"/><stop stop-opacity="1" stop-color="rgb(32.278442%, 32.278442%, 32.278442%)" offset="0.566406"/><stop stop-opacity="1" stop-color="rgb(33.171082%, 33.171082%, 33.171082%)" offset="0.570312"/><stop stop-opacity="1" stop-color="rgb(34.062195%, 34.062195%, 34.062195%)" offset="0.574219"/><stop stop-opacity="1" stop-color="rgb(34.954834%, 34.954834%, 34.954834%)" offset="0.578125"/><stop stop-opacity="1" stop-color="rgb(35.845947%, 35.845947%, 35.845947%)" offset="0.582031"/><stop stop-opacity="1" stop-color="rgb(36.738586%, 36.738586%, 36.738586%)" offset="0.585938"/><stop stop-opacity="1" stop-color="rgb(37.6297%, 37.6297%, 37.6297%)" offset="0.589844"/><stop stop-opacity="1" stop-color="rgb(38.522339%, 38.522339%, 38.522339%)" offset="0.59375"/><stop stop-opacity="1" stop-color="rgb(39.414978%, 39.414978%, 39.414978%)" offset="0.597656"/><stop stop-opacity="1" stop-color="rgb(40.307617%, 40.307617%, 40.307617%)" offset="0.601562"/><stop stop-opacity="1" stop-color="rgb(41.19873%, 41.19873%, 41.19873%)" offset="0.605469"/><stop stop-opacity="1" stop-color="rgb(42.09137%, 42.09137%, 42.09137%)" offset="0.609375"/><stop stop-opacity="1" stop-color="rgb(42.982483%, 42.982483%, 42.982483%)" offset="0.613281"/><stop stop-opacity="1" stop-color="rgb(43.875122%, 43.875122%, 43.875122%)" offset="0.617188"/><stop stop-opacity="1" stop-color="rgb(44.487%, 44.487%, 44.487%)" offset="0.621094"/><stop stop-opacity="1" stop-color="rgb(45.098877%, 45.098877%, 45.098877%)" offset="0.625"/><stop stop-opacity="1" stop-color="rgb(45.098877%, 45.098877%, 45.098877%)" offset="0.75"/><stop stop-opacity="1" stop-color="rgb(45.098877%, 45.098877%, 45.098877%)" offset="1"/></linearGradient><clipPath id="c7fff7bb9e"><rect x="0" width="1440" y="0" height="810"/></clipPath><clipPath id="0decbd24f8"><rect x="0" width="1440" y="0" height="810"/></clipPath><clipPath id="888ba6931a"><rect x="0" width="1440" y="0" height="810"/></clipPath><mask id="18dda1ef65"><g filter="url(#b8551693b0)"><g transform="matrix(1, 0, 0, 1, 0, 0.000000000000039746)"><g clip-path="url(#888ba6931a)"><g transform="matrix(1, 0, 0, 1, 0, 0.000000000000039746)"><g clip-path="url(#0decbd24f8)"><g fill="#000000" fill-opacity="1"><g transform="translate(612.322775, 590.58162)"><g><path d="M 90.625 -142.1875 L 90.625 0 L 46.84375 0 L 46.84375 -344.15625 L 130.640625 -344.15625 C 172.390625 -344.15625 203.226562 -336.070312 223.15625 -319.90625 C 243.082031 -303.738281 253.046875 -279.257812 253.046875 -246.46875 C 253.046875 -232.8125 251.125 -220.878906 247.28125 -210.671875 C 243.4375 -200.472656 238.335938 -191.722656 231.984375 -184.421875 C 225.628906 -177.128906 218.367188 -171.050781 210.203125 -166.1875 C 202.046875 -161.320312 193.648438 -157.320312 185.015625 -154.1875 L 278.703125 0 L 227.15625 0 L 144.53125 -142.1875 Z M 90.625 -179.375 L 129.234375 -179.375 C 143.359375 -179.375 155.363281 -180.742188 165.25 -183.484375 C 175.132812 -186.234375 183.253906 -190.316406 189.609375 -195.734375 C 195.960938 -201.148438 200.59375 -207.894531 203.5 -215.96875 C 206.40625 -224.050781 207.859375 -233.507812 207.859375 -244.34375 C 207.859375 -255.644531 206.25 -265.21875 203.03125 -273.0625 C 199.8125 -280.90625 194.945312 -287.335938 188.4375 -292.359375 C 181.925781 -297.378906 173.6875 -301.023438 163.71875 -303.296875 C 153.75 -305.578125 141.941406 -306.71875 128.296875 -306.71875 L 90.625 -306.71875 Z M 90.625 -179.375 "/></g></g></g></g></g></g></g></g></mask><clipPath id="e72cc937a5"><path d="M 0 0 L 1440 0 L 1440 810 L 0 810 Z M 0 0 " clip-rule="nonzero"/></clipPath><clipPath id="f74e5d5835"><rect x="0" width="1440" y="0" height="810"/></clipPath><clipPath id="3cefe2c98a"><rect x="0" width="1440" y="0" height="810"/></clipPath><clipPath id="940a679724"><rect x="0" width="1440" y="0" height="810"/></clipPath></defs><g transform="matrix(1, 0, 0, 1, 0, 0.000000000000039746)"><g clip-path="url(#940a679724)"><g fill="#000000" fill-opacity="0.302"><g transform="translate(637.96555, 610.615943)"><g><path d="M 90.625 -142.1875 L 90.625 0 L 46.84375 0 L 46.84375 -344.15625 L 130.640625 -344.15625 C 172.390625 -344.15625 203.226562 -336.070312 223.15625 -319.90625 C 243.082031 -303.738281 253.046875 -279.257812 253.046875 -246.46875 C 253.046875 -232.8125 251.125 -220.878906 247.28125 -210.671875 C 243.4375 -200.472656 238.335938 -191.722656 231.984375 -184.421875 C 225.628906 -177.128906 218.367188 -171.050781 210.203125 -166.1875 C 202.046875 -161.320312 193.648438 -157.320312 185.015625 -154.1875 L 278.703125 0 L 227.15625 0 L 144.53125 -142.1875 Z M 90.625 -179.375 L 129.234375 -179.375 C 143.359375 -179.375 155.363281 -180.742188 165.25 -183.484375 C 175.132812 -186.234375 183.253906 -190.316406 189.609375 -195.734375 C 195.960938 -201.148438 200.59375 -207.894531 203.5 -215.96875 C 206.40625 -224.050781 207.859375 -233.507812 207.859375 -244.34375 C 207.859375 -255.644531 206.25 -265.21875 203.03125 -273.0625 C 199.8125 -280.90625 194.945312 -287.335938 188.4375 -292.359375 C 181.925781 -297.378906 173.6875 -301.023438 163.71875 -303.296875 C 153.75 -305.578125 141.941406 -306.71875 128.296875 -306.71875 L 90.625 -306.71875 Z M 90.625 -179.375 "/></g></g></g><g fill="#000000" fill-opacity="0.502"><g transform="translate(625.144127, 600.598785)"><g><path d="M 90.625 -142.1875 L 90.625 0 L 46.84375 0 L 46.84375 -344.15625 L 130.640625 -344.15625 C 172.390625 -344.15625 203.226562 -336.070312 223.15625 -319.90625 C 243.082031 -303.738281 253.046875 -279.257812 253.046875 -246.46875 C 253.046875 -232.8125 251.125 -220.878906 247.28125 -210.671875 C 243.4375 -200.472656 238.335938 -191.722656 231.984375 -184.421875 C 225.628906 -177.128906 218.367188 -171.050781 210.203125 -166.1875 C 202.046875 -161.320312 193.648438 -157.320312 185.015625 -154.1875 L 278.703125 0 L 227.15625 0 L 144.53125 -142.1875 Z M 90.625 -179.375 L 129.234375 -179.375 C 143.359375 -179.375 155.363281 -180.742188 165.25 -183.484375 C 175.132812 -186.234375 183.253906 -190.316406 189.609375 -195.734375 C 195.960938 -201.148438 200.59375 -207.894531 203.5 -215.96875 C 206.40625 -224.050781 207.859375 -233.507812 207.859375 -244.34375 C 207.859375 -255.644531 206.25 -265.21875 203.03125 -273.0625 C 199.8125 -280.90625 194.945312 -287.335938 188.4375 -292.359375 C 181.925781 -297.378906 173.6875 -301.023438 163.71875 -303.296875 C 153.75 -305.578125 141.941406 -306.71875 128.296875 -306.71875 L 90.625 -306.71875 Z M 90.625 -179.375 "/></g></g></g><g transform="matrix(1, 0, 0, 1, 0, 0.000000000000039746)"><g clip-path="url(#3cefe2c98a)"><g mask="url(#18dda1ef65)"><g transform="matrix(1, 0, 0, 1, 0, 0.000000000000039746)"><g clip-path="url(#f74e5d5835)"><g clip-path="url(#e72cc937a5)"><rect x="-772.992" fill="url(#1c34b5875a)" width="2985.984" height="1679.615985" y="-434.807996"/></g></g></g></g></g></g></g></g></svg>